<svg version="1" xmlns="http://www.w3.org/2000/svg" width="202.667" height="202.667" viewBox="0 0 152.000000 152.000000"><path d="M54.9 37.5c-8.1 4.3-7.1 23.2 1.6 31.2 4.3 4.1 8.2 4.3 11.8.7 2.4-2.4 3.2-4.5 4.1-10.9.8-5.3-2.8-14.6-7.1-18.6-3.5-3.3-7.1-4.1-10.4-2.4zM90 36.7C82.1 39.6 76.4 56 80 65.5c2.8 7.2 9.3 8.4 15 2.7 8.9-8.9 8.8-28-.1-31.1-1.8-.6-3.2-1.1-3.3-1-.1 0-.8.3-1.6.6zM30.4 58.5c-9.7 4.1-5 26 6.9 32.2 3.7 1.9 8.1.9 10.8-2.5 1.7-2.2 2-3.7 1.7-8.7C49.2 70 44 61.6 37 58.6c-3-1.2-4-1.2-6.6-.1zM115.3 58.2c-6.8 1.8-13.2 11.3-14 20.9-.5 4.8-.2 6.2 1.6 8.8 2.7 3.7 5.2 4.6 9.4 3.2 7.8-2.6 14.2-13.6 13.5-23.3-.6-8.4-3.9-11.4-10.5-9.6zM71.4 77.4c-1.9.8-5.5 4.5-8.7 8.9-3 4.1-8.1 9.4-11.3 11.8-7.9 6.1-9.7 8.8-9.7 14.7-.1 10.6 7.6 16.3 20.8 15.6 7.6-.4 20.2-.4 27.8.1 9.9.6 16.1-2.4 18.5-9.1 2.4-6.5-1.2-14.9-7.9-19-1.9-1.1-10.1-11.2-13.5-16.5-4.2-6.6-10.2-9.1-16-6.5z"/></svg>